<mxfile host="Electron" modified="2024-02-04T20:49:57.904Z" agent="Mozilla/5.0 (Windows NT 10.0; Win64; x64) AppleWebKit/537.36 (KHTML, like Gecko) draw.io/22.0.2 Chrome/114.0.5735.289 Electron/25.8.4 Safari/537.36" etag="ew384OzJF9ry0_5ar9p7" version="22.0.2" type="device">
  <diagram name="Page-1" id="FcjTnN1osP1dsOTYfN1-">
    <mxGraphModel dx="166" dy="97" grid="1" gridSize="10" guides="1" tooltips="1" connect="1" arrows="1" fold="1" page="1" pageScale="1" pageWidth="827" pageHeight="1169" math="0" shadow="0">
      <root>
        <mxCell id="0" />
        <mxCell id="1" parent="0" />
        <mxCell id="-JEkUFVNVaD4qIEH3NqO-44" value="" style="endArrow=none;html=1;rounded=0;strokeColor=#AD105C;dashed=1;" parent="1" target="-JEkUFVNVaD4qIEH3NqO-43" edge="1">
          <mxGeometry width="50" height="50" relative="1" as="geometry">
            <mxPoint x="640" y="600" as="sourcePoint" />
            <mxPoint x="660" y="340" as="targetPoint" />
          </mxGeometry>
        </mxCell>
        <mxCell id="-JEkUFVNVaD4qIEH3NqO-16" value="" style="endArrow=none;html=1;rounded=0;strokeColor=#AD105C;dashed=1;entryX=0.5;entryY=1;entryDx=0;entryDy=0;" parent="1" source="-JEkUFVNVaD4qIEH3NqO-23" target="-JEkUFVNVaD4qIEH3NqO-3" edge="1">
          <mxGeometry width="50" height="50" relative="1" as="geometry">
            <mxPoint x="644.71" y="759.83" as="sourcePoint" />
            <mxPoint x="644.71" y="119.83000000000001" as="targetPoint" />
          </mxGeometry>
        </mxCell>
        <mxCell id="JfPUq11iSvKXBAznfQrh-3" value="" style="endArrow=none;html=1;rounded=0;strokeColor=#AD105C;dashed=1;" parent="1" edge="1">
          <mxGeometry width="50" height="50" relative="1" as="geometry">
            <mxPoint x="240" y="600" as="sourcePoint" />
            <mxPoint x="240" y="130" as="targetPoint" />
          </mxGeometry>
        </mxCell>
        <mxCell id="n3yEZyMTPkoygYLhiBQ4-12" value="" style="sketch=0;points=[[0,0,0],[0.25,0,0],[0.5,0,0],[0.75,0,0],[1,0,0],[0,1,0],[0.25,1,0],[0.5,1,0],[0.75,1,0],[1,1,0],[0,0.25,0],[0,0.5,0],[0,0.75,0],[1,0.25,0],[1,0.5,0],[1,0.75,0]];outlineConnect=0;fontColor=#232F3E;fillColor=#7AA116;strokeColor=#ffffff;dashed=0;verticalLabelPosition=bottom;verticalAlign=top;align=center;html=1;fontSize=12;fontStyle=0;aspect=fixed;shape=mxgraph.aws4.resourceIcon;resIcon=mxgraph.aws4.iot_core;" parent="1" vertex="1">
          <mxGeometry x="120" y="79.83" width="40" height="40" as="geometry" />
        </mxCell>
        <mxCell id="n3yEZyMTPkoygYLhiBQ4-23" value="" style="endArrow=none;html=1;rounded=0;strokeColor=#AD105C;dashed=1;" parent="1" source="n3yEZyMTPkoygYLhiBQ4-16" edge="1">
          <mxGeometry width="50" height="50" relative="1" as="geometry">
            <mxPoint x="139.82" y="709.83" as="sourcePoint" />
            <mxPoint x="139.66000000000003" y="129.83" as="targetPoint" />
          </mxGeometry>
        </mxCell>
        <mxCell id="n3yEZyMTPkoygYLhiBQ4-34" value="IoT Core" style="text;html=1;strokeColor=none;fillColor=none;align=center;verticalAlign=middle;whiteSpace=wrap;rounded=0;" parent="1" vertex="1">
          <mxGeometry x="110" y="119.83" width="60" height="10" as="geometry" />
        </mxCell>
        <mxCell id="n3yEZyMTPkoygYLhiBQ4-152" value="" style="endArrow=none;html=1;rounded=0;" parent="1" edge="1">
          <mxGeometry width="50" height="50" relative="1" as="geometry">
            <mxPoint x="200" y="120" as="sourcePoint" />
            <mxPoint x="200" y="60" as="targetPoint" />
          </mxGeometry>
        </mxCell>
        <mxCell id="n3yEZyMTPkoygYLhiBQ4-153" value="Device" style="text;html=1;strokeColor=none;fillColor=none;align=center;verticalAlign=middle;whiteSpace=wrap;rounded=0;fontStyle=1;fontSize=13;" parent="1" vertex="1">
          <mxGeometry x="450" y="60" width="60" height="13" as="geometry" />
        </mxCell>
        <mxCell id="n3yEZyMTPkoygYLhiBQ4-154" value="AWS cloud" style="text;html=1;strokeColor=none;fillColor=none;align=center;verticalAlign=middle;whiteSpace=wrap;rounded=0;fontStyle=1;fontSize=13;" parent="1" vertex="1">
          <mxGeometry x="97.5" y="60" width="85" height="13" as="geometry" />
        </mxCell>
        <mxCell id="n3yEZyMTPkoygYLhiBQ4-16" value="" style="rounded=0;whiteSpace=wrap;html=1;fillColor=none;strokeColor=#AD105C;strokeWidth=1;" parent="1" vertex="1">
          <mxGeometry x="135" y="140" width="10" height="460" as="geometry" />
        </mxCell>
        <mxCell id="-JEkUFVNVaD4qIEH3NqO-3" value="Led" style="rounded=0;whiteSpace=wrap;html=1;" parent="1" vertex="1">
          <mxGeometry x="600" y="79.83" width="80" height="40" as="geometry" />
        </mxCell>
        <mxCell id="-JEkUFVNVaD4qIEH3NqO-4" value="Publish" style="rounded=0;whiteSpace=wrap;html=1;" parent="1" vertex="1">
          <mxGeometry x="440" y="79.83000000000001" width="80" height="40" as="geometry" />
        </mxCell>
        <mxCell id="-JEkUFVNVaD4qIEH3NqO-5" value="Subscribe" style="rounded=0;whiteSpace=wrap;html=1;" parent="1" vertex="1">
          <mxGeometry x="320" y="79.83000000000001" width="80" height="40" as="geometry" />
        </mxCell>
        <mxCell id="-JEkUFVNVaD4qIEH3NqO-6" value="" style="endArrow=none;html=1;rounded=0;strokeColor=#AD105C;dashed=1;" parent="1" source="-JEkUFVNVaD4qIEH3NqO-9" edge="1">
          <mxGeometry width="50" height="50" relative="1" as="geometry">
            <mxPoint x="360" y="760" as="sourcePoint" />
            <mxPoint x="360" y="120" as="targetPoint" />
          </mxGeometry>
        </mxCell>
        <mxCell id="-JEkUFVNVaD4qIEH3NqO-13" value="" style="endArrow=classic;html=1;rounded=0;strokeColor=#AD105C;entryX=0;entryY=0;entryDx=0;entryDy=0;" parent="1" target="-JEkUFVNVaD4qIEH3NqO-9" edge="1">
          <mxGeometry width="50" height="50" relative="1" as="geometry">
            <mxPoint x="145" y="180" as="sourcePoint" />
            <mxPoint x="280" y="190" as="targetPoint" />
          </mxGeometry>
        </mxCell>
        <mxCell id="-JEkUFVNVaD4qIEH3NqO-15" value="&lt;div&gt;_on_stream_event(&lt;/div&gt;&lt;div&gt;&lt;span style=&quot;white-space: pre;&quot;&gt;&#x9;&lt;/span&gt;event[&quot;device/thingName/&lt;b&gt;frequency&lt;/b&gt;&quot;,&amp;nbsp;&lt;span style=&quot;background-color: initial;&quot;&gt;&lt;b&gt;3&lt;/b&gt;]&lt;/span&gt;&lt;span style=&quot;background-color: initial;&quot;&gt;)&lt;/span&gt;&lt;/div&gt;" style="text;html=1;strokeColor=none;fillColor=none;align=left;verticalAlign=middle;whiteSpace=wrap;rounded=0;fontSize=10;" parent="1" vertex="1">
          <mxGeometry x="145" y="157" width="197.5" height="28" as="geometry" />
        </mxCell>
        <mxCell id="-JEkUFVNVaD4qIEH3NqO-17" value="" style="endArrow=none;html=1;rounded=0;strokeColor=#AD105C;dashed=1;exitX=0.5;exitY=0;exitDx=0;exitDy=0;entryX=0.5;entryY=1;entryDx=0;entryDy=0;" parent="1" source="-JEkUFVNVaD4qIEH3NqO-35" target="-JEkUFVNVaD4qIEH3NqO-9" edge="1">
          <mxGeometry width="50" height="50" relative="1" as="geometry">
            <mxPoint x="360" y="785" as="sourcePoint" />
            <mxPoint x="360" y="365.00000000000006" as="targetPoint" />
          </mxGeometry>
        </mxCell>
        <mxCell id="-JEkUFVNVaD4qIEH3NqO-9" value="" style="rounded=0;whiteSpace=wrap;html=1;fillColor=none;strokeColor=#AD105C;strokeWidth=1;" parent="1" vertex="1">
          <mxGeometry x="355" y="200" width="10" height="90" as="geometry" />
        </mxCell>
        <mxCell id="-JEkUFVNVaD4qIEH3NqO-18" value="" style="endArrow=classic;html=1;rounded=0;strokeColor=#AD105C;entryX=0;entryY=0;entryDx=0;entryDy=0;" parent="1" edge="1">
          <mxGeometry width="50" height="50" relative="1" as="geometry">
            <mxPoint x="365" y="209" as="sourcePoint" />
            <mxPoint x="635" y="210" as="targetPoint" />
          </mxGeometry>
        </mxCell>
        <mxCell id="-JEkUFVNVaD4qIEH3NqO-19" value="" style="endArrow=none;html=1;rounded=0;strokeColor=#AD105C;dashed=1;" parent="1" source="-JEkUFVNVaD4qIEH3NqO-57" edge="1">
          <mxGeometry width="50" height="50" relative="1" as="geometry">
            <mxPoint x="479.71" y="669.83" as="sourcePoint" />
            <mxPoint x="479.71" y="119.83" as="targetPoint" />
          </mxGeometry>
        </mxCell>
        <mxCell id="-JEkUFVNVaD4qIEH3NqO-21" value="&lt;div&gt;callback_message(&lt;/div&gt;&lt;div&gt;&lt;span style=&quot;white-space: pre;&quot;&gt;&#x9;&lt;/span&gt;&quot;device/thingName/&lt;b&gt;frequency&lt;/b&gt;&quot;,&lt;/div&gt;&lt;div&gt;&lt;span style=&quot;white-space: pre;&quot;&gt;&#x9;&lt;/span&gt;&lt;b&gt;3&lt;/b&gt;&lt;span style=&quot;background-color: initial;&quot;&gt;)&lt;/span&gt;&lt;/div&gt;" style="text;html=1;strokeColor=none;fillColor=none;align=left;verticalAlign=middle;whiteSpace=wrap;rounded=0;fontSize=10;" parent="1" vertex="1">
          <mxGeometry x="480" y="169" width="148.75" height="40" as="geometry" />
        </mxCell>
        <mxCell id="-JEkUFVNVaD4qIEH3NqO-22" value="" style="endArrow=classic;html=1;rounded=0;strokeColor=#AD105C;" parent="1" edge="1">
          <mxGeometry width="50" height="50" relative="1" as="geometry">
            <mxPoint x="645" y="220" as="sourcePoint" />
            <mxPoint x="645" y="240" as="targetPoint" />
            <Array as="points">
              <mxPoint x="670" y="220" />
              <mxPoint x="670" y="240" />
            </Array>
          </mxGeometry>
        </mxCell>
        <mxCell id="-JEkUFVNVaD4qIEH3NqO-24" value="" style="endArrow=none;html=1;rounded=0;strokeColor=#AD105C;dashed=1;entryX=0.5;entryY=1;entryDx=0;entryDy=0;" parent="1" source="-JEkUFVNVaD4qIEH3NqO-43" target="-JEkUFVNVaD4qIEH3NqO-23" edge="1">
          <mxGeometry width="50" height="50" relative="1" as="geometry">
            <mxPoint x="644.71" y="804.83" as="sourcePoint" />
            <mxPoint x="640" y="370" as="targetPoint" />
          </mxGeometry>
        </mxCell>
        <mxCell id="-JEkUFVNVaD4qIEH3NqO-23" value="" style="rounded=0;whiteSpace=wrap;html=1;fillColor=none;strokeColor=#AD105C;strokeWidth=1;" parent="1" vertex="1">
          <mxGeometry x="635" y="200" width="10" height="90" as="geometry" />
        </mxCell>
        <mxCell id="-JEkUFVNVaD4qIEH3NqO-25" value="&lt;div&gt;frequency_change(&lt;b&gt;3&lt;/b&gt;)&lt;/div&gt;" style="text;html=1;strokeColor=none;fillColor=none;align=left;verticalAlign=middle;whiteSpace=wrap;rounded=0;fontSize=10;" parent="1" vertex="1">
          <mxGeometry x="650" y="206" width="100" height="11" as="geometry" />
        </mxCell>
        <mxCell id="-JEkUFVNVaD4qIEH3NqO-31" value="" style="endArrow=classic;html=1;rounded=0;strokeColor=#AD105C;entryX=1;entryY=0;entryDx=0;entryDy=0;" parent="1" target="-JEkUFVNVaD4qIEH3NqO-57" edge="1">
          <mxGeometry width="50" height="50" relative="1" as="geometry">
            <mxPoint x="635" y="260" as="sourcePoint" />
            <mxPoint x="480" y="320" as="targetPoint" />
          </mxGeometry>
        </mxCell>
        <mxCell id="-JEkUFVNVaD4qIEH3NqO-32" value="&lt;div&gt;publish_to_topic(&lt;/div&gt;&lt;div&gt;&lt;span style=&quot;white-space: pre;&quot;&gt;&#x9;&lt;/span&gt;&quot;lambda/thingName/&lt;b&gt;frequency&lt;/b&gt;&quot;,&lt;/div&gt;&lt;div&gt;&lt;span style=&quot;white-space: pre;&quot;&gt;&#x9;&lt;/span&gt;&lt;b&gt;3&lt;/b&gt;)&lt;/div&gt;" style="text;html=1;strokeColor=none;fillColor=none;align=left;verticalAlign=middle;whiteSpace=wrap;rounded=0;fontSize=10;" parent="1" vertex="1">
          <mxGeometry x="470" y="219.51" width="150" height="40.49" as="geometry" />
        </mxCell>
        <mxCell id="-JEkUFVNVaD4qIEH3NqO-33" value="" style="endArrow=classic;html=1;rounded=0;strokeColor=#AD105C;" parent="1" edge="1">
          <mxGeometry width="50" height="50" relative="1" as="geometry">
            <mxPoint x="475" y="269.88" as="sourcePoint" />
            <mxPoint x="145" y="270" as="targetPoint" />
          </mxGeometry>
        </mxCell>
        <mxCell id="-JEkUFVNVaD4qIEH3NqO-34" value="&lt;div&gt;publish_to_iot_core(&lt;/div&gt;&lt;div&gt;&lt;span style=&quot;&quot;&gt;&lt;span style=&quot;white-space: pre;&quot;&gt;&amp;nbsp;&amp;nbsp;&amp;nbsp;&amp;nbsp;&lt;/span&gt;&lt;/span&gt;&quot;lambda/thingName/&lt;b style=&quot;border-color: var(--border-color);&quot;&gt;frequency&lt;/b&gt;&quot;,&lt;/div&gt;&lt;div&gt;&lt;span style=&quot;&quot;&gt;&lt;span style=&quot;white-space: pre;&quot;&gt;&amp;nbsp;&amp;nbsp;&amp;nbsp;&amp;nbsp;&lt;b&gt;3&lt;/b&gt;&lt;/span&gt;&lt;/span&gt;)&lt;/div&gt;" style="text;html=1;strokeColor=none;fillColor=none;align=left;verticalAlign=middle;whiteSpace=wrap;rounded=0;fontSize=10;" parent="1" vertex="1">
          <mxGeometry x="152.5" y="230" width="150" height="40" as="geometry" />
        </mxCell>
        <mxCell id="-JEkUFVNVaD4qIEH3NqO-36" value="" style="endArrow=none;html=1;rounded=0;strokeColor=#AD105C;dashed=1;" parent="1" target="-JEkUFVNVaD4qIEH3NqO-35" edge="1">
          <mxGeometry width="50" height="50" relative="1" as="geometry">
            <mxPoint x="360" y="600" as="sourcePoint" />
            <mxPoint x="360" y="230" as="targetPoint" />
          </mxGeometry>
        </mxCell>
        <mxCell id="-JEkUFVNVaD4qIEH3NqO-35" value="" style="rounded=0;whiteSpace=wrap;html=1;fillColor=none;strokeColor=#AD105C;strokeWidth=1;" parent="1" vertex="1">
          <mxGeometry x="355" y="350" width="10" height="90" as="geometry" />
        </mxCell>
        <mxCell id="-JEkUFVNVaD4qIEH3NqO-37" value="" style="endArrow=classic;html=1;rounded=0;strokeColor=#AD105C;entryX=0;entryY=0;entryDx=0;entryDy=0;" parent="1" target="-JEkUFVNVaD4qIEH3NqO-35" edge="1">
          <mxGeometry width="50" height="50" relative="1" as="geometry">
            <mxPoint x="240" y="340" as="sourcePoint" />
            <mxPoint x="370" y="339.99999999999994" as="targetPoint" />
          </mxGeometry>
        </mxCell>
        <mxCell id="-JEkUFVNVaD4qIEH3NqO-38" value="&lt;div&gt;_on_stream_event_local(&lt;/div&gt;&lt;div&gt;&lt;span style=&quot;white-space: pre;&quot;&gt;&#x9;&lt;/span&gt;event[&quot;device/&lt;b&gt;button&lt;/b&gt;&quot;, &lt;b&gt;True&lt;/b&gt;&lt;span style=&quot;background-color: initial;&quot;&gt;])&lt;/span&gt;&lt;/div&gt;" style="text;html=1;strokeColor=none;fillColor=none;align=left;verticalAlign=middle;whiteSpace=wrap;rounded=0;fontSize=10;" parent="1" vertex="1">
          <mxGeometry x="253" y="322" width="160" height="20" as="geometry" />
        </mxCell>
        <mxCell id="-JEkUFVNVaD4qIEH3NqO-41" value="" style="endArrow=classic;html=1;rounded=0;strokeColor=#AD105C;entryX=0;entryY=0;entryDx=0;entryDy=0;" parent="1" target="-JEkUFVNVaD4qIEH3NqO-43" edge="1">
          <mxGeometry width="50" height="50" relative="1" as="geometry">
            <mxPoint x="365" y="360" as="sourcePoint" />
            <mxPoint x="635" y="360.0000000000001" as="targetPoint" />
          </mxGeometry>
        </mxCell>
        <mxCell id="-JEkUFVNVaD4qIEH3NqO-43" value="" style="rounded=0;whiteSpace=wrap;html=1;fillColor=none;strokeColor=#AD105C;strokeWidth=1;" parent="1" vertex="1">
          <mxGeometry x="635" y="360" width="10" height="80" as="geometry" />
        </mxCell>
        <mxCell id="-JEkUFVNVaD4qIEH3NqO-45" value="&lt;div&gt;callback_message(&lt;/div&gt;&lt;div&gt;&lt;span style=&quot;white-space: pre;&quot;&gt;&#x9;&lt;/span&gt;&quot;device/&lt;b&gt;button&lt;/b&gt;&quot;,&lt;/div&gt;&lt;div&gt;&lt;span style=&quot;white-space: pre;&quot;&gt;&#x9;&lt;/span&gt;&lt;b&gt;True&lt;/b&gt;)&lt;/div&gt;" style="text;html=1;strokeColor=none;fillColor=none;align=left;verticalAlign=middle;whiteSpace=wrap;rounded=0;fontSize=10;" parent="1" vertex="1">
          <mxGeometry x="485" y="320" width="128.75" height="40" as="geometry" />
        </mxCell>
        <mxCell id="-JEkUFVNVaD4qIEH3NqO-47" value="" style="endArrow=classic;html=1;rounded=0;strokeColor=#AD105C;" parent="1" edge="1">
          <mxGeometry width="50" height="50" relative="1" as="geometry">
            <mxPoint x="645" y="369.81" as="sourcePoint" />
            <mxPoint x="645" y="390" as="targetPoint" />
            <Array as="points">
              <mxPoint x="670" y="369.81" />
              <mxPoint x="670" y="390" />
            </Array>
          </mxGeometry>
        </mxCell>
        <mxCell id="-JEkUFVNVaD4qIEH3NqO-48" value="&lt;div&gt;on_off(&lt;b&gt;True&lt;/b&gt;)&lt;/div&gt;" style="text;html=1;strokeColor=none;fillColor=none;align=left;verticalAlign=middle;whiteSpace=wrap;rounded=0;fontSize=10;" parent="1" vertex="1">
          <mxGeometry x="650" y="356" width="57.5" height="11" as="geometry" />
        </mxCell>
        <mxCell id="-JEkUFVNVaD4qIEH3NqO-51" value="" style="endArrow=classic;html=1;rounded=0;strokeColor=#AD105C;exitX=0;exitY=1;exitDx=0;exitDy=0;entryX=1;entryY=0;entryDx=0;entryDy=0;" parent="1" target="-JEkUFVNVaD4qIEH3NqO-58" edge="1">
          <mxGeometry width="50" height="50" relative="1" as="geometry">
            <mxPoint x="635" y="410" as="sourcePoint" />
            <mxPoint x="485" y="410" as="targetPoint" />
          </mxGeometry>
        </mxCell>
        <mxCell id="-JEkUFVNVaD4qIEH3NqO-52" value="&lt;div&gt;publish_to_topic(&lt;/div&gt;&lt;div&gt;&lt;span style=&quot;white-space: pre;&quot;&gt;&#x9;&lt;/span&gt;&quot;lambda/thingName/&lt;b&gt;button&lt;/b&gt;&quot;,&lt;/div&gt;&lt;div&gt;&lt;span style=&quot;white-space: pre;&quot;&gt;&#x9;&lt;/span&gt;&lt;b&gt;True&lt;/b&gt;)&lt;/div&gt;" style="text;html=1;strokeColor=none;fillColor=none;align=left;verticalAlign=middle;whiteSpace=wrap;rounded=0;fontSize=10;" parent="1" vertex="1">
          <mxGeometry x="483.76" y="370" width="150" height="40" as="geometry" />
        </mxCell>
        <mxCell id="-JEkUFVNVaD4qIEH3NqO-53" value="" style="endArrow=classic;html=1;rounded=0;strokeColor=#AD105C;" parent="1" edge="1">
          <mxGeometry width="50" height="50" relative="1" as="geometry">
            <mxPoint x="475" y="420" as="sourcePoint" />
            <mxPoint x="145" y="420" as="targetPoint" />
          </mxGeometry>
        </mxCell>
        <mxCell id="-JEkUFVNVaD4qIEH3NqO-54" value="&lt;div&gt;publish_to_iot_core(&lt;/div&gt;&lt;div&gt;&lt;span style=&quot;white-space: pre;&quot;&gt;&#x9;&lt;/span&gt;&quot;lambda/thingName/&lt;b style=&quot;border-color: var(--border-color);&quot;&gt;button&lt;/b&gt;&quot;,&lt;/div&gt;&lt;div&gt;&lt;span style=&quot;white-space: pre;&quot;&gt;&#x9;&lt;/span&gt;&lt;b&gt;True&lt;/b&gt;)&lt;/div&gt;" style="text;html=1;strokeColor=none;fillColor=none;align=left;verticalAlign=middle;whiteSpace=wrap;rounded=0;fontSize=10;" parent="1" vertex="1">
          <mxGeometry x="152.5" y="380" width="150" height="40" as="geometry" />
        </mxCell>
        <mxCell id="-JEkUFVNVaD4qIEH3NqO-59" value="" style="endArrow=none;html=1;rounded=0;strokeColor=#AD105C;dashed=1;" parent="1" target="-JEkUFVNVaD4qIEH3NqO-58" edge="1">
          <mxGeometry width="50" height="50" relative="1" as="geometry">
            <mxPoint x="480" y="600" as="sourcePoint" />
            <mxPoint x="479.71" y="149.82999999999998" as="targetPoint" />
          </mxGeometry>
        </mxCell>
        <mxCell id="-JEkUFVNVaD4qIEH3NqO-58" value="" style="rounded=0;whiteSpace=wrap;html=1;fillColor=default;strokeColor=#AD105C;strokeWidth=1;" parent="1" vertex="1">
          <mxGeometry x="475" y="410" width="10" height="20" as="geometry" />
        </mxCell>
        <mxCell id="-JEkUFVNVaD4qIEH3NqO-61" value="" style="endArrow=classic;html=1;rounded=0;strokeColor=#AD105C;entryX=1;entryY=1;entryDx=0;entryDy=0;dashed=1;exitX=0;exitY=1;exitDx=0;exitDy=0;" parent="1" source="-JEkUFVNVaD4qIEH3NqO-23" target="-JEkUFVNVaD4qIEH3NqO-9" edge="1">
          <mxGeometry width="50" height="50" relative="1" as="geometry">
            <mxPoint x="635" y="320" as="sourcePoint" />
            <mxPoint x="365" y="365" as="targetPoint" />
          </mxGeometry>
        </mxCell>
        <mxCell id="-JEkUFVNVaD4qIEH3NqO-63" value="" style="endArrow=none;html=1;rounded=0;strokeColor=#AD105C;dashed=1;" parent="1" source="-JEkUFVNVaD4qIEH3NqO-58" target="-JEkUFVNVaD4qIEH3NqO-57" edge="1">
          <mxGeometry width="50" height="50" relative="1" as="geometry">
            <mxPoint x="480" y="495" as="sourcePoint" />
            <mxPoint x="479.71" y="129.82999999999998" as="targetPoint" />
          </mxGeometry>
        </mxCell>
        <mxCell id="-JEkUFVNVaD4qIEH3NqO-57" value="" style="rounded=0;whiteSpace=wrap;html=1;fillColor=default;strokeColor=#AD105C;strokeWidth=1;" parent="1" vertex="1">
          <mxGeometry x="475" y="260" width="10" height="20" as="geometry" />
        </mxCell>
        <mxCell id="-JEkUFVNVaD4qIEH3NqO-64" value="" style="endArrow=classic;html=1;rounded=0;strokeColor=#AD105C;entryX=1;entryY=0;entryDx=0;entryDy=0;dashed=1;" parent="1" edge="1">
          <mxGeometry width="50" height="50" relative="1" as="geometry">
            <mxPoint x="485" y="280" as="sourcePoint" />
            <mxPoint x="635" y="280" as="targetPoint" />
          </mxGeometry>
        </mxCell>
        <mxCell id="-JEkUFVNVaD4qIEH3NqO-65" value="" style="endArrow=classic;html=1;rounded=0;strokeColor=#AD105C;entryX=1;entryY=0;entryDx=0;entryDy=0;dashed=1;" parent="1" edge="1">
          <mxGeometry width="50" height="50" relative="1" as="geometry">
            <mxPoint x="485" y="430" as="sourcePoint" />
            <mxPoint x="635" y="430" as="targetPoint" />
          </mxGeometry>
        </mxCell>
        <mxCell id="-JEkUFVNVaD4qIEH3NqO-68" value="" style="endArrow=classic;html=1;rounded=0;strokeColor=#AD105C;dashed=1;entryX=1;entryY=1;entryDx=0;entryDy=0;exitX=0;exitY=1;exitDx=0;exitDy=0;" parent="1" source="-JEkUFVNVaD4qIEH3NqO-43" target="-JEkUFVNVaD4qIEH3NqO-35" edge="1">
          <mxGeometry width="50" height="50" relative="1" as="geometry">
            <mxPoint x="630" y="440" as="sourcePoint" />
            <mxPoint x="363.76" y="440" as="targetPoint" />
          </mxGeometry>
        </mxCell>
        <mxCell id="58K5-g8gVqhy0GrbCxnm-5" value="" style="endArrow=none;html=1;rounded=0;shape=link;strokeColor=#666666;" parent="1" edge="1">
          <mxGeometry width="50" height="50" relative="1" as="geometry">
            <mxPoint x="120" y="339.96000000000004" as="sourcePoint" />
            <mxPoint x="120" y="339.9599999999999" as="targetPoint" />
          </mxGeometry>
        </mxCell>
        <mxCell id="lTmDRrwS3Fb5ej10DpKZ-3" value="" style="group" parent="1" vertex="1" connectable="0">
          <mxGeometry x="110" y="148" width="570" height="14" as="geometry" />
        </mxCell>
        <mxCell id="lTmDRrwS3Fb5ej10DpKZ-2" value="" style="rounded=0;whiteSpace=wrap;html=1;strokeColor=none;" parent="lTmDRrwS3Fb5ej10DpKZ-3" vertex="1">
          <mxGeometry width="570.0000000000001" height="4" as="geometry" />
        </mxCell>
        <mxCell id="lTmDRrwS3Fb5ej10DpKZ-6" value="Change frequency" style="rounded=0;whiteSpace=wrap;html=1;strokeColor=#666666;" parent="lTmDRrwS3Fb5ej10DpKZ-3" vertex="1">
          <mxGeometry x="238.6271186440678" y="-8" width="108.39661016949152" height="20" as="geometry" />
        </mxCell>
        <mxCell id="lTmDRrwS3Fb5ej10DpKZ-1" value="" style="endArrow=none;html=1;rounded=0;shape=link;strokeColor=#666666;entryX=1;entryY=0.5;entryDx=0;entryDy=0;" parent="lTmDRrwS3Fb5ej10DpKZ-3" source="lTmDRrwS3Fb5ej10DpKZ-6" edge="1" target="lTmDRrwS3Fb5ej10DpKZ-2">
          <mxGeometry width="50" height="50" relative="1" as="geometry">
            <mxPoint x="86.94915254237289" y="-0.03999999999999204" as="sourcePoint" />
            <mxPoint x="550.6779661016949" y="-8" as="targetPoint" />
          </mxGeometry>
        </mxCell>
        <mxCell id="lTmDRrwS3Fb5ej10DpKZ-7" value="" style="endArrow=none;html=1;rounded=0;shape=link;strokeColor=#666666;" parent="1" target="lTmDRrwS3Fb5ej10DpKZ-6" edge="1">
          <mxGeometry width="50" height="50" relative="1" as="geometry">
            <mxPoint x="110" y="150" as="sourcePoint" />
            <mxPoint x="620" y="147.96" as="targetPoint" />
          </mxGeometry>
        </mxCell>
        <mxCell id="JfPUq11iSvKXBAznfQrh-1" value="" style="shape=umlActor;verticalLabelPosition=bottom;verticalAlign=top;html=1;outlineConnect=0;" parent="1" vertex="1">
          <mxGeometry x="231" y="80" width="18" height="40" as="geometry" />
        </mxCell>
        <mxCell id="JfPUq11iSvKXBAznfQrh-2" value="Button app" style="text;html=1;strokeColor=none;fillColor=none;align=center;verticalAlign=middle;whiteSpace=wrap;rounded=0;" parent="1" vertex="1">
          <mxGeometry x="205.94" y="120" width="68.12" height="10" as="geometry" />
        </mxCell>
        <mxCell id="JfPUq11iSvKXBAznfQrh-4" value="" style="group" parent="1" vertex="1" connectable="0">
          <mxGeometry x="110" y="308" width="570" height="14" as="geometry" />
        </mxCell>
        <mxCell id="JfPUq11iSvKXBAznfQrh-5" value="" style="rounded=0;whiteSpace=wrap;html=1;strokeColor=none;" parent="JfPUq11iSvKXBAznfQrh-4" vertex="1">
          <mxGeometry width="570.0000000000001" height="4" as="geometry" />
        </mxCell>
        <mxCell id="JfPUq11iSvKXBAznfQrh-8" value="Enable blinking" style="rounded=0;whiteSpace=wrap;html=1;strokeColor=#666666;" parent="JfPUq11iSvKXBAznfQrh-4" vertex="1">
          <mxGeometry x="238.6271186440678" y="-8" width="108.39661016949152" height="20" as="geometry" />
        </mxCell>
        <mxCell id="JfPUq11iSvKXBAznfQrh-7" value="" style="endArrow=none;html=1;rounded=0;shape=link;strokeColor=#666666;entryX=1;entryY=0.5;entryDx=0;entryDy=0;" parent="JfPUq11iSvKXBAznfQrh-4" source="JfPUq11iSvKXBAznfQrh-8" edge="1" target="JfPUq11iSvKXBAznfQrh-5">
          <mxGeometry width="50" height="50" relative="1" as="geometry">
            <mxPoint x="90" y="-0.03999999999996362" as="sourcePoint" />
            <mxPoint x="580" y="-8" as="targetPoint" />
          </mxGeometry>
        </mxCell>
        <mxCell id="JfPUq11iSvKXBAznfQrh-6" value="" style="endArrow=none;html=1;rounded=0;shape=link;strokeColor=#666666;" parent="1" target="JfPUq11iSvKXBAznfQrh-8" edge="1">
          <mxGeometry width="50" height="50" relative="1" as="geometry">
            <mxPoint x="110" y="310" as="sourcePoint" />
            <mxPoint x="620" y="307.96000000000004" as="targetPoint" />
          </mxGeometry>
        </mxCell>
        <mxCell id="JfPUq11iSvKXBAznfQrh-9" value="" style="rounded=0;whiteSpace=wrap;html=1;fillColor=default;strokeColor=#AD105C;strokeWidth=1;" parent="1" vertex="1">
          <mxGeometry x="355" y="500" width="10" height="90" as="geometry" />
        </mxCell>
        <mxCell id="JfPUq11iSvKXBAznfQrh-10" value="" style="endArrow=classic;html=1;rounded=0;strokeColor=#AD105C;entryX=0;entryY=0;entryDx=0;entryDy=0;" parent="1" target="JfPUq11iSvKXBAznfQrh-9" edge="1">
          <mxGeometry width="50" height="50" relative="1" as="geometry">
            <mxPoint x="240" y="490" as="sourcePoint" />
            <mxPoint x="370" y="489.99999999999994" as="targetPoint" />
          </mxGeometry>
        </mxCell>
        <mxCell id="JfPUq11iSvKXBAznfQrh-11" value="&lt;div&gt;_on_stream_event_local(&lt;/div&gt;&lt;div&gt;&lt;span style=&quot;white-space: pre;&quot;&gt;&#x9;&lt;/span&gt;event[&quot;device/&lt;b&gt;button&lt;/b&gt;&quot;, &lt;b&gt;False&lt;/b&gt;&lt;span style=&quot;background-color: initial;&quot;&gt;])&lt;/span&gt;&lt;/div&gt;" style="text;html=1;strokeColor=none;fillColor=none;align=left;verticalAlign=middle;whiteSpace=wrap;rounded=0;fontSize=10;" parent="1" vertex="1">
          <mxGeometry x="253" y="472" width="160" height="20" as="geometry" />
        </mxCell>
        <mxCell id="JfPUq11iSvKXBAznfQrh-12" value="" style="endArrow=classic;html=1;rounded=0;strokeColor=#AD105C;entryX=0;entryY=0;entryDx=0;entryDy=0;" parent="1" target="JfPUq11iSvKXBAznfQrh-13" edge="1">
          <mxGeometry width="50" height="50" relative="1" as="geometry">
            <mxPoint x="365" y="510" as="sourcePoint" />
            <mxPoint x="635" y="510.0000000000001" as="targetPoint" />
          </mxGeometry>
        </mxCell>
        <mxCell id="JfPUq11iSvKXBAznfQrh-13" value="" style="rounded=0;whiteSpace=wrap;html=1;fillColor=default;strokeColor=#AD105C;strokeWidth=1;" parent="1" vertex="1">
          <mxGeometry x="635" y="510" width="10" height="80" as="geometry" />
        </mxCell>
        <mxCell id="JfPUq11iSvKXBAznfQrh-14" value="&lt;div&gt;callback_message(&lt;/div&gt;&lt;div&gt;&lt;span style=&quot;white-space: pre;&quot;&gt;&#x9;&lt;/span&gt;&quot;device/&lt;b&gt;button&lt;/b&gt;&quot;,&lt;/div&gt;&lt;div&gt;&lt;span style=&quot;white-space: pre;&quot;&gt;&#x9;&lt;/span&gt;&lt;b&gt;False&lt;/b&gt;)&lt;/div&gt;" style="text;html=1;strokeColor=none;fillColor=none;align=left;verticalAlign=middle;whiteSpace=wrap;rounded=0;fontSize=10;" parent="1" vertex="1">
          <mxGeometry x="494.38" y="470" width="128.75" height="40" as="geometry" />
        </mxCell>
        <mxCell id="JfPUq11iSvKXBAznfQrh-15" value="" style="endArrow=classic;html=1;rounded=0;strokeColor=#AD105C;" parent="1" edge="1">
          <mxGeometry width="50" height="50" relative="1" as="geometry">
            <mxPoint x="645" y="519.81" as="sourcePoint" />
            <mxPoint x="645" y="540" as="targetPoint" />
            <Array as="points">
              <mxPoint x="670" y="519.81" />
              <mxPoint x="670" y="540" />
            </Array>
          </mxGeometry>
        </mxCell>
        <mxCell id="JfPUq11iSvKXBAznfQrh-16" value="&lt;div&gt;on_off(&lt;b&gt;False&lt;/b&gt;)&lt;/div&gt;" style="text;html=1;strokeColor=none;fillColor=none;align=left;verticalAlign=middle;whiteSpace=wrap;rounded=0;fontSize=10;" parent="1" vertex="1">
          <mxGeometry x="650" y="506" width="57.5" height="11" as="geometry" />
        </mxCell>
        <mxCell id="JfPUq11iSvKXBAznfQrh-17" value="" style="endArrow=classic;html=1;rounded=0;strokeColor=#AD105C;exitX=0;exitY=1;exitDx=0;exitDy=0;entryX=1;entryY=0;entryDx=0;entryDy=0;" parent="1" target="JfPUq11iSvKXBAznfQrh-21" edge="1">
          <mxGeometry width="50" height="50" relative="1" as="geometry">
            <mxPoint x="635" y="560" as="sourcePoint" />
            <mxPoint x="485" y="560" as="targetPoint" />
          </mxGeometry>
        </mxCell>
        <mxCell id="JfPUq11iSvKXBAznfQrh-18" value="&lt;div&gt;publish_to_topic(&lt;/div&gt;&lt;div&gt;&lt;span style=&quot;white-space: pre;&quot;&gt;&#x9;&lt;/span&gt;&quot;lambda/thingName/&lt;b&gt;button&lt;/b&gt;&quot;,&lt;/div&gt;&lt;div&gt;&lt;span style=&quot;white-space: pre;&quot;&gt;&#x9;&lt;/span&gt;&lt;b&gt;False&lt;/b&gt;)&lt;/div&gt;" style="text;html=1;strokeColor=none;fillColor=none;align=left;verticalAlign=middle;whiteSpace=wrap;rounded=0;fontSize=10;" parent="1" vertex="1">
          <mxGeometry x="483.76" y="520" width="150" height="40" as="geometry" />
        </mxCell>
        <mxCell id="JfPUq11iSvKXBAznfQrh-19" value="" style="endArrow=classic;html=1;rounded=0;strokeColor=#AD105C;" parent="1" edge="1">
          <mxGeometry width="50" height="50" relative="1" as="geometry">
            <mxPoint x="475" y="570" as="sourcePoint" />
            <mxPoint x="145" y="570" as="targetPoint" />
          </mxGeometry>
        </mxCell>
        <mxCell id="JfPUq11iSvKXBAznfQrh-20" value="&lt;div&gt;publish_to_iot_core(&lt;/div&gt;&lt;div&gt;&lt;span style=&quot;white-space: pre;&quot;&gt;&#x9;&lt;/span&gt;&quot;lambda/thingName/&lt;b style=&quot;border-color: var(--border-color);&quot;&gt;button&lt;/b&gt;&quot;,&lt;/div&gt;&lt;div&gt;&lt;span style=&quot;white-space: pre;&quot;&gt;&#x9;&lt;/span&gt;&lt;b&gt;False&lt;/b&gt;)&lt;/div&gt;" style="text;html=1;strokeColor=none;fillColor=none;align=left;verticalAlign=middle;whiteSpace=wrap;rounded=0;fontSize=10;" parent="1" vertex="1">
          <mxGeometry x="152.5" y="530" width="150" height="40" as="geometry" />
        </mxCell>
        <mxCell id="JfPUq11iSvKXBAznfQrh-21" value="" style="rounded=0;whiteSpace=wrap;html=1;fillColor=default;strokeColor=#AD105C;strokeWidth=1;" parent="1" vertex="1">
          <mxGeometry x="475" y="560" width="10" height="20" as="geometry" />
        </mxCell>
        <mxCell id="JfPUq11iSvKXBAznfQrh-22" value="" style="endArrow=classic;html=1;rounded=0;strokeColor=#AD105C;entryX=1;entryY=0;entryDx=0;entryDy=0;dashed=1;" parent="1" edge="1">
          <mxGeometry width="50" height="50" relative="1" as="geometry">
            <mxPoint x="485" y="580" as="sourcePoint" />
            <mxPoint x="635" y="580" as="targetPoint" />
          </mxGeometry>
        </mxCell>
        <mxCell id="JfPUq11iSvKXBAznfQrh-23" value="" style="endArrow=classic;html=1;rounded=0;strokeColor=#AD105C;dashed=1;entryX=1;entryY=1;entryDx=0;entryDy=0;exitX=0;exitY=1;exitDx=0;exitDy=0;" parent="1" source="JfPUq11iSvKXBAznfQrh-13" target="JfPUq11iSvKXBAznfQrh-9" edge="1">
          <mxGeometry width="50" height="50" relative="1" as="geometry">
            <mxPoint x="630" y="590" as="sourcePoint" />
            <mxPoint x="363.76" y="590" as="targetPoint" />
          </mxGeometry>
        </mxCell>
        <mxCell id="JfPUq11iSvKXBAznfQrh-24" value="" style="endArrow=none;html=1;rounded=0;shape=link;strokeColor=#666666;" parent="1" edge="1">
          <mxGeometry width="50" height="50" relative="1" as="geometry">
            <mxPoint x="120" y="489.96000000000004" as="sourcePoint" />
            <mxPoint x="120" y="489.9599999999999" as="targetPoint" />
          </mxGeometry>
        </mxCell>
        <mxCell id="JfPUq11iSvKXBAznfQrh-25" value="" style="group" parent="1" vertex="1" connectable="0">
          <mxGeometry x="110" y="458" width="570" height="14" as="geometry" />
        </mxCell>
        <mxCell id="JfPUq11iSvKXBAznfQrh-26" value="" style="rounded=0;whiteSpace=wrap;html=1;strokeColor=none;" parent="JfPUq11iSvKXBAznfQrh-25" vertex="1">
          <mxGeometry width="570.0000000000001" height="4" as="geometry" />
        </mxCell>
        <mxCell id="JfPUq11iSvKXBAznfQrh-29" value="Disable blinking" style="rounded=0;whiteSpace=wrap;html=1;strokeColor=#666666;" parent="JfPUq11iSvKXBAznfQrh-25" vertex="1">
          <mxGeometry x="238.6271186440678" y="-8" width="108.39661016949152" height="20" as="geometry" />
        </mxCell>
        <mxCell id="JfPUq11iSvKXBAznfQrh-28" value="" style="endArrow=none;html=1;rounded=0;shape=link;strokeColor=#666666;entryX=1;entryY=0.5;entryDx=0;entryDy=0;" parent="JfPUq11iSvKXBAznfQrh-25" source="JfPUq11iSvKXBAznfQrh-29" edge="1" target="JfPUq11iSvKXBAznfQrh-26">
          <mxGeometry width="50" height="50" relative="1" as="geometry">
            <mxPoint x="90" y="-0.03999999999996362" as="sourcePoint" />
            <mxPoint x="590" y="2" as="targetPoint" />
          </mxGeometry>
        </mxCell>
        <mxCell id="JfPUq11iSvKXBAznfQrh-27" value="" style="endArrow=none;html=1;rounded=0;shape=link;strokeColor=#666666;" parent="1" target="JfPUq11iSvKXBAznfQrh-29" edge="1">
          <mxGeometry width="50" height="50" relative="1" as="geometry">
            <mxPoint x="110" y="460" as="sourcePoint" />
            <mxPoint x="620" y="457.96000000000004" as="targetPoint" />
          </mxGeometry>
        </mxCell>
      </root>
    </mxGraphModel>
  </diagram>
</mxfile>
